<?xml version="1.0" encoding="utf-8"?>
<!-- Generator: Adobe Illustrator 16.0.0, SVG Export Plug-In . SVG Version: 6.00 Build 0)  -->
<!DOCTYPE svg PUBLIC "-//W3C//DTD SVG 1.1//EN" "http://www.w3.org/Graphics/SVG/1.1/DTD/svg11.dtd">
<svg version="1.1" id="Layer_1" xmlns="http://www.w3.org/2000/svg" xmlns:xlink="http://www.w3.org/1999/xlink" x="0px" y="0px"
	 width="258.5px" height="139.391px" viewBox="-8.5 0 258.5 139.391" enable-background="new -8.5 0 258.5 139.391"
	 xml:space="preserve">
<g id="XMLID_2_">
	<path id="XMLID_6_" fill="#FFFFFF" d="M90.534,106.753V32.637h9.218v74.115H90.534z"/>
	<path id="XMLID_8_" fill="#FFFFFF" d="M121.431,106.753V32.637h9.218v65.87h34.464v8.245H121.431z"/>
	<path id="XMLID_10_" fill="#FFFFFF" d="M235.938,106.753l-6.577-16.537h-36.919l-6.532,16.537H175.35l29.877-74.115h11.441
		l29.785,74.115H235.938z M210.925,42.087l-15.703,39.977h31.499L210.925,42.087z"/>
</g>
<path id="XMLID_13_" fill="#FFFFFF" d="M70.615,64.878V37.502c0-1.854-1.019-3.521-2.687-4.309
	c-1.622-0.834-3.613-0.648-5.049,0.464c-0.973,0.694-17.278,12.97-29.322,23.068C21.468,46.581,5.208,34.305,4.236,33.61
	c-1.482-1.111-3.428-1.297-5.049-0.463C-2.481,33.981-3.5,35.648-3.5,37.455v69.298h9.681V47.229
	c6.346,4.863,13.804,10.746,20.011,15.888c-1.529,1.437-2.826,2.688-3.798,3.753c-3.243,3.612-4.91,8.105-4.632,12.691
	c0.278,4.123,2.038,7.782,5.049,10.377c5.883,5.095,15.564,5.095,21.493,0c3.011-2.595,4.771-6.3,5.049-10.377
	c0.278-4.539-1.343-9.079-4.632-12.691c-0.926-1.065-2.224-2.316-3.798-3.753c6.207-5.142,13.665-10.978,20.011-15.888v59.523h9.681
	V64.878z M37.958,82.619c-2.409,2.085-6.438,2.038-8.847,0c-1.019-0.88-1.622-2.177-1.714-3.659
	c-0.139-1.945,0.648-3.938,2.131-5.605c0.926-1.019,2.316-2.362,3.983-3.891c1.667,1.528,3.057,2.825,3.984,3.891
	c1.528,1.668,2.27,3.66,2.131,5.605C39.58,80.442,38.978,81.739,37.958,82.619z"/>
</svg>
