<?xml version="1.0" encoding="utf-8"?>
<!-- Generator: Adobe Illustrator 16.0.0, SVG Export Plug-In . SVG Version: 6.00 Build 0)  -->
<!DOCTYPE svg PUBLIC "-//W3C//DTD SVG 1.1//EN" "http://www.w3.org/Graphics/SVG/1.1/DTD/svg11.dtd">
<svg version="1.1" id="Layer_1" xmlns="http://www.w3.org/2000/svg" xmlns:xlink="http://www.w3.org/1999/xlink" x="0px" y="0px"
	 width="100px" height="100px" viewBox="0 0 100 100" enable-background="new 0 0 100 100" xml:space="preserve">
<path fill="#3C8C73" d="M67.65,9.725c0.842,3.658,0.925,3.967,0.85,7.725c-0.025,1.458-0.8,8.167-0.592,10.225
	c0.167,1.692,0.566,1.825,1.184,3.225c1.074,2.434,0.717,5.792,0.301,8.242c-0.218,1.342-0.701,3.258-1.434,4.358
	c-0.801,1.2-2.409,1.208-3.125,2.625C63.809,48.15,64.393,51,63.75,53.191c-0.742,2.482-2.6,2.658-2.742,5.916
	c0.917,0.135,1.826,0.283,2.742,0.418c0.908,2.106,2.592,6.332,4.309,7.6c1.435,0.425,2.875,0.842,4.301,1.268
	c5.041,2.226,10.625,4.883,15.666,7.184c4.601,2.091,10.093,2.824,11.759,8.023c0,3.525,0.301,11.852,0.225,16.467H-0.017
	C-0.108,95.45,0.208,87.125,0.208,83.6c1.65-5.199,7.15-5.934,11.742-8.023c5.05-2.301,10.633-4.958,15.667-7.184
	c1.433-0.426,2.867-0.843,4.308-1.268c1.717-1.268,3.392-5.492,4.309-7.6l2.042-0.533C37.81,56.217,36.218,56,35.56,54.033
	c-0.267-2.949-0.525-5.908-0.792-8.867c0.008,0.142-1.875-0.375-2.117-0.533c-2.658-1.8-2.717-9.108-2.975-12.133
	c-0.117-1.392,1.675-2.533,1.175-5.075c-2.909-14.9,1.267-21.858,7.867-24.175c4.575-2.008,13.134-5.725,21.117-0.425l1.981,1.983
	l3.201,0.591C66.625,6.4,67.65,9.725,67.65,9.725z"/>
</svg>
